<mxfile host="65bd71144e">
    <diagram id="pP1WaJ6vC72g-cJ4vM0m" name="Page-1">
        <mxGraphModel dx="1655" dy="723" grid="1" gridSize="5" guides="1" tooltips="1" connect="1" arrows="1" fold="1" page="1" pageScale="1" pageWidth="827" pageHeight="583" math="0" shadow="0">
            <root>
                <mxCell id="0"/>
                <mxCell id="1" value="PageFrame (invisible)" style="locked=1;" parent="0"/>
                <mxCell id="23" value="" style="rounded=0;whiteSpace=wrap;html=1;strokeColor=none;fillColor=none;" parent="1" vertex="1">
                    <mxGeometry x="-20" y="40" width="820" height="490" as="geometry"/>
                </mxCell>
                <mxCell id="11" value="DiagramFrame" style="locked=1;" parent="0"/>
                <mxCell id="18" value="[bd] Building Blocks" style="shape=umlFrame;whiteSpace=wrap;html=1;width=130;height=30;boundedLbl=1;verticalAlign=middle;align=left;spacingLeft=5;fillColor=none;" parent="11" vertex="1">
                    <mxGeometry x="-10" y="45" width="805" height="480" as="geometry"/>
                </mxCell>
                <mxCell id="13" value="Apps" style="locked=1;" parent="0"/>
                <mxCell id="2" value="«app»&lt;br&gt;Frontend" style="rounded=0;whiteSpace=wrap;html=1;fillColor=none;verticalAlign=top;dashed=1;" parent="13" vertex="1">
                    <mxGeometry x="95" y="114" width="335" height="360" as="geometry"/>
                </mxCell>
                <mxCell id="19" value="«app»&lt;br&gt;Backend" style="rounded=0;whiteSpace=wrap;html=1;fillColor=none;verticalAlign=top;dashed=1;" parent="13" vertex="1">
                    <mxGeometry x="525" y="109" width="220" height="365" as="geometry"/>
                </mxCell>
                <mxCell id="12" value="Components" style="" parent="0"/>
                <mxCell id="33" style="edgeStyle=orthogonalEdgeStyle;html=1;exitX=1;exitY=0.1;exitDx=0;exitDy=0;entryX=0;entryY=0.5;entryDx=0;entryDy=0;endArrow=none;endFill=0;rounded=0;dashed=1;exitPerimeter=0;" edge="1" parent="12" source="3" target="5">
                    <mxGeometry relative="1" as="geometry"/>
                </mxCell>
                <mxCell id="34" style="edgeStyle=orthogonalEdgeStyle;rounded=0;html=1;endArrow=none;endFill=0;dashed=1;exitX=1;exitY=0.4;exitDx=0;exitDy=0;exitPerimeter=0;" edge="1" parent="12" source="3" target="8">
                    <mxGeometry relative="1" as="geometry"/>
                </mxCell>
                <mxCell id="36" style="edgeStyle=orthogonalEdgeStyle;rounded=0;html=1;exitX=1.014;exitY=0.9;exitDx=0;exitDy=0;entryX=0;entryY=0.5;entryDx=0;entryDy=0;dashed=1;endArrow=none;endFill=0;strokeColor=default;jumpStyle=arc;exitPerimeter=0;" edge="1" parent="12" source="3" target="9">
                    <mxGeometry relative="1" as="geometry"/>
                </mxCell>
                <mxCell id="3" value="«comp»&lt;br&gt;App" style="rounded=0;whiteSpace=wrap;html=1;fillColor=none;points=[[0,0,0,0,0],[0,0.25,0,0,0],[0,0.5,0,0,0],[0,0.75,0,0,0],[0,1,0,0,0],[0.25,0,0,0,0],[0.25,1,0,0,0],[0.51,0,0,0,0],[0.51,1,0,0,0],[0.75,0,0,0,0],[0.75,1,0,0,0],[1,0,0,0,0],[1,0.1,0,0,0],[1,0.2,0,0,0],[1,0.25,0,0,0],[1,0.3,0,0,0],[1,0.4,0,0,0],[1,0.5,0,0,0],[1,0.6,0,0,0],[1,0.7,0,0,0],[1,0.75,0,0,0],[1,0.8,0,0,0],[1,0.9,0,0,0],[1,1,0,0,0]];" parent="12" vertex="1">
                    <mxGeometry x="108" y="155" width="71" height="255" as="geometry"/>
                </mxCell>
                <mxCell id="4" value="«component»&lt;br&gt;Store" style="rounded=0;whiteSpace=wrap;html=1;fillColor=none;points=[[0,0,0,0,0],[0,0.24,0,0,0],[0,0.52,0,0,0],[0,0.76,0,0,0],[0,1,0,0,0],[0.13,0,0,0,0],[0.17,0,0,0,0],[0.25,0,0,0,0],[0.25,1,0,0,0],[0.33,0,0,0,0],[0.38,0,0,0,0],[0.5,0,0,0,0],[0.5,1,0,0,0],[0.63,0,0,0,0],[0.67,0,0,0,0],[0.75,0,0,0,0],[0.75,1,0,0,0],[0.83,0,0,0,0],[0.88,0,0,0,0],[1,0,0,0,0],[1,0.24,0,0,0],[1,0.52,0,0,0],[1,0.76,0,0,0],[1,1,0,0,0]];" parent="12" vertex="1">
                    <mxGeometry x="110" y="430" width="304" height="29" as="geometry"/>
                </mxCell>
                <mxCell id="42" style="edgeStyle=orthogonalEdgeStyle;rounded=0;jumpStyle=arc;html=1;entryX=0.926;entryY=0.034;entryDx=0;entryDy=0;entryPerimeter=0;strokeColor=default;endArrow=none;endFill=0;exitX=0.75;exitY=1;exitDx=0;exitDy=0;" edge="1" parent="12" source="5" target="4">
                    <mxGeometry relative="1" as="geometry"/>
                </mxCell>
                <mxCell id="5" value="«component»&lt;br&gt;«exension»&lt;br&gt;ComponentD" style="rounded=0;whiteSpace=wrap;html=1;fillColor=none;" parent="12" vertex="1">
                    <mxGeometry x="314" y="155" width="100" height="50" as="geometry"/>
                </mxCell>
                <mxCell id="35" style="edgeStyle=orthogonalEdgeStyle;rounded=0;html=1;entryX=1.014;entryY=0.659;entryDx=0;entryDy=0;entryPerimeter=0;endArrow=none;endFill=0;exitX=0;exitY=0.5;exitDx=0;exitDy=0;dashed=1;" edge="1" parent="12" source="7" target="3">
                    <mxGeometry relative="1" as="geometry"/>
                </mxCell>
                <mxCell id="31" style="edgeStyle=orthogonalEdgeStyle;html=1;entryX=0;entryY=0.25;entryDx=0;entryDy=0;endArrow=none;endFill=0;jumpStyle=arc;startArrow=none;rounded=0;exitX=1;exitY=0.5;exitDx=0;exitDy=0;" edge="1" parent="12" source="8" target="24">
                    <mxGeometry relative="1" as="geometry"/>
                </mxCell>
                <mxCell id="43" style="edgeStyle=orthogonalEdgeStyle;rounded=0;jumpStyle=arc;html=1;entryX=0.83;entryY=0;entryDx=0;entryDy=0;strokeColor=default;endArrow=none;endFill=0;exitX=0.75;exitY=1;exitDx=0;exitDy=0;entryPerimeter=0;" edge="1" parent="12" source="8" target="4">
                    <mxGeometry relative="1" as="geometry"/>
                </mxCell>
                <mxCell id="8" value="«component»&lt;br&gt;«exension»&lt;br&gt;ComponentC" style="rounded=0;whiteSpace=wrap;html=1;fillColor=none;" parent="12" vertex="1">
                    <mxGeometry x="275" y="225" width="100" height="50.99" as="geometry"/>
                </mxCell>
                <mxCell id="45" style="edgeStyle=orthogonalEdgeStyle;rounded=0;jumpStyle=arc;html=1;strokeColor=default;endArrow=none;endFill=0;exitX=0.75;exitY=1;exitDx=0;exitDy=0;entryX=0.577;entryY=-0.011;entryDx=0;entryDy=0;entryPerimeter=0;" edge="1" parent="12" source="9" target="4">
                    <mxGeometry relative="1" as="geometry">
                        <mxPoint x="285" y="430" as="targetPoint"/>
                    </mxGeometry>
                </mxCell>
                <mxCell id="9" value="«component»&lt;br&gt;«exension»&lt;br&gt;ComponentA" style="rounded=0;whiteSpace=wrap;html=1;fillColor=none;" parent="12" vertex="1">
                    <mxGeometry x="195" y="360" width="100" height="50" as="geometry"/>
                </mxCell>
                <mxCell id="21" value="«component»&lt;br&gt;Models" style="rounded=0;whiteSpace=wrap;html=1;fillColor=none;" parent="12" vertex="1">
                    <mxGeometry x="610" y="150" width="125" height="260" as="geometry"/>
                </mxCell>
                <mxCell id="41" style="edgeStyle=orthogonalEdgeStyle;rounded=0;jumpStyle=arc;html=1;exitX=0.75;exitY=0;exitDx=0;exitDy=0;strokeColor=default;endArrow=none;endFill=0;dashed=1;" edge="1" parent="12" source="22" target="21">
                    <mxGeometry relative="1" as="geometry"/>
                </mxCell>
                <mxCell id="22" value="«component»&lt;br&gt;App" style="rounded=0;whiteSpace=wrap;html=1;fillColor=none;" parent="12" vertex="1">
                    <mxGeometry x="535" y="430" width="200" height="29" as="geometry"/>
                </mxCell>
                <mxCell id="39" style="edgeStyle=orthogonalEdgeStyle;rounded=0;jumpStyle=arc;html=1;entryX=0;entryY=0.75;entryDx=0;entryDy=0;strokeColor=default;endArrow=none;endFill=0;exitX=1;exitY=0.75;exitDx=0;exitDy=0;" edge="1" parent="12" source="24" target="21">
                    <mxGeometry relative="1" as="geometry"/>
                </mxCell>
                <mxCell id="40" style="edgeStyle=orthogonalEdgeStyle;rounded=0;jumpStyle=arc;html=1;entryX=0.25;entryY=0;entryDx=0;entryDy=0;strokeColor=default;endArrow=none;endFill=0;dashed=1;" edge="1" parent="12" source="24" target="22">
                    <mxGeometry relative="1" as="geometry"/>
                </mxCell>
                <mxCell id="24" value="«comp»&lt;br&gt;API" style="rounded=0;whiteSpace=wrap;html=1;fillColor=none;" parent="12" vertex="1">
                    <mxGeometry x="535" y="150" width="45" height="260" as="geometry"/>
                </mxCell>
                <mxCell id="29" value="«actor»&lt;br&gt;User" style="shape=umlActor;verticalLabelPosition=bottom;verticalAlign=top;html=1;outlineConnect=0;" parent="12" vertex="1">
                    <mxGeometry x="25" y="252.5" width="30" height="60" as="geometry"/>
                </mxCell>
                <mxCell id="30" style="edgeStyle=orthogonalEdgeStyle;html=1;entryX=0;entryY=0.5;entryDx=0;entryDy=0;endArrow=none;endFill=0;" edge="1" parent="12" source="29" target="3">
                    <mxGeometry relative="1" as="geometry"/>
                </mxCell>
                <mxCell id="44" style="edgeStyle=orthogonalEdgeStyle;rounded=0;jumpStyle=arc;html=1;entryX=0.75;entryY=0;entryDx=0;entryDy=0;entryPerimeter=0;strokeColor=default;endArrow=none;endFill=0;exitX=0.75;exitY=1;exitDx=0;exitDy=0;" edge="1" parent="12" source="7" target="4">
                    <mxGeometry relative="1" as="geometry"/>
                </mxCell>
                <mxCell id="7" value="«component»&lt;br&gt;«exension»&lt;br&gt;ComponentB" style="rounded=0;whiteSpace=wrap;html=1;fillColor=none;" parent="12" vertex="1">
                    <mxGeometry x="240" y="291.5" width="100" height="50" as="geometry"/>
                </mxCell>
                <mxCell id="15" value="SubComponents" style="locked=1;" parent="0"/>
            </root>
        </mxGraphModel>
    </diagram>
</mxfile>
